<svg width="480" height="438" viewBox="0 0 480 438" fill="none" xmlns="http://www.w3.org/2000/svg">
<path d="M80.24 277.502H261.375L284.432 317.437H80.24C58.1846 317.437 40.3051 335.317 40.3051 357.372C40.3051 379.428 58.1846 397.307 80.24 397.307H330.545C345.409 423.041 372.433 437.375 400.167 437.241C400.018 437.242 399.869 437.242 399.72 437.242H80.24C36.1291 437.242 0.370117 401.483 0.370117 357.372C0.370117 313.261 36.1291 277.502 80.24 277.502Z" fill="url(#paint0_linear_102_2)"/>
<path d="M80.24 337.405H295.96L319.017 377.34H80.24C69.2123 377.34 60.2726 368.4 60.2726 357.372C60.2726 346.345 69.2123 337.405 80.24 337.405Z" fill="url(#paint1_linear_102_2)"/>
<path d="M330.577 397.293L240.009 240.426L263.066 200.491L365.162 377.326C376.19 396.427 400.613 402.971 419.714 391.943C438.815 380.915 445.359 356.492 434.331 337.391L309.179 120.621C324.033 94.881 322.935 64.3105 308.951 40.3594C309.027 40.488 309.102 40.6169 309.176 40.746L468.916 317.424C490.971 355.625 477.883 404.472 439.682 426.528C401.48 448.583 352.633 435.495 330.577 397.293Z" fill="url(#paint2_linear_102_2)"/>
<path d="M382.454 367.342L274.594 180.523L297.651 140.588L417.039 347.375C422.553 356.925 419.281 369.137 409.73 374.651C400.18 380.165 387.968 376.893 382.454 367.342Z" fill="url(#paint3_linear_102_2)"/>
<path d="M309.163 120.618L218.595 277.486H172.482L274.578 100.651C285.606 81.5499 279.061 57.1261 259.961 46.0984C240.86 35.0706 216.436 41.615 205.408 60.7156L80.2561 277.486C50.5378 277.492 24.6122 293.728 10.8615 317.813C10.9352 317.684 11.0094 317.555 11.084 317.426L170.824 40.7481C192.879 2.54692 241.727 -10.5418 279.928 11.5137C318.129 33.5691 331.218 82.4168 309.163 120.618Z" fill="url(#paint4_linear_102_2)"/>
<path d="M257.285 90.6668L149.425 277.486H103.313L222.701 70.6993C228.215 61.149 240.427 57.8768 249.977 63.3907C259.527 68.9046 262.799 81.1165 257.285 90.6668Z" fill="url(#paint5_linear_102_2)"/>
<defs>
<linearGradient id="paint0_linear_102_2" x1="0.370117" y1="357.372" x2="400.167" y2="357.372" gradientUnits="userSpaceOnUse">
<stop stop-color="#E05757"/>
<stop offset="1" stop-color="#4D5BDB"/>
</linearGradient>
<linearGradient id="paint1_linear_102_2" x1="0.370117" y1="357.372" x2="400.167" y2="357.372" gradientUnits="userSpaceOnUse">
<stop stop-color="#E05757"/>
<stop offset="1" stop-color="#4D5BDB"/>
</linearGradient>
<linearGradient id="paint2_linear_102_2" x1="447.522" y1="421.007" x2="239.72" y2="66.0893" gradientUnits="userSpaceOnUse">
<stop stop-color="#E05757"/>
<stop offset="1" stop-color="#4D5BDB"/>
</linearGradient>
<linearGradient id="paint3_linear_102_2" x1="447.522" y1="421.007" x2="239.72" y2="66.0893" gradientUnits="userSpaceOnUse">
<stop stop-color="#E05757"/>
<stop offset="1" stop-color="#4D5BDB"/>
</linearGradient>
<linearGradient id="paint4_linear_102_2" x1="271.227" y1="7.48436" x2="67.7601" y2="364.905" gradientUnits="userSpaceOnUse">
<stop stop-color="#E05757"/>
<stop offset="1" stop-color="#4D5BDB"/>
</linearGradient>
<linearGradient id="paint5_linear_102_2" x1="271.227" y1="7.48436" x2="67.7601" y2="364.905" gradientUnits="userSpaceOnUse">
<stop stop-color="#E05757"/>
<stop offset="1" stop-color="#4D5BDB"/>
</linearGradient>
</defs>
</svg>
